<?xml version="1.0" encoding="utf-8"?>
<!-- Generator: Adobe Illustrator 16.0.0, SVG Export Plug-In . SVG Version: 6.00 Build 0)  -->
<!DOCTYPE svg PUBLIC "-//W3C//DTD SVG 1.1//EN" "http://www.w3.org/Graphics/SVG/1.1/DTD/svg11.dtd">
<svg version="1.1" id="Capa_1" xmlns="http://www.w3.org/2000/svg" xmlns:xlink="http://www.w3.org/1999/xlink" x="0px" y="0px"
	 width="320px" height="320px" viewBox="0 0 320 320" enable-background="new 0 0 320 320" xml:space="preserve">
<path fill="#A10723" d="M161.322,280.501c-66.444,0-120.5-54.056-120.5-120.5s54.056-120.5,120.5-120.5s120.5,54.056,120.5,120.5
	S227.767,280.501,161.322,280.501z M161.322,52.501c-59.275,0-107.5,48.225-107.5,107.5s48.225,107.5,107.5,107.5
	s107.5-48.225,107.5-107.5S220.598,52.501,161.322,52.501z"/>
<path fill="#A10723" d="M207.573,136.82c0.778-3.37,1.202-6.874,1.202-10.48c0-25.654-20.799-46.452-46.453-46.452
	c-25.656,0-46.453,20.798-46.453,46.452c0,8.216,2.141,15.929,5.883,22.624l-0.008,0.001c0,0,0.023,0.036,0.066,0.101
	c0.844,1.501,1.77,2.949,2.77,4.341c6.663,10.588,23.087,37.587,27.314,53.019c0,0,6.676,21.898,6.409,30.711
	c0,0-0.508,4.806,4.019,4.806c0,0,5.062,0.535,4.794-6.408c0,0,4.272-22.967,6.676-28.308s10.682-29.375,20.562-41.926
	c0,0,14.184-24.386,13.233-28.482L207.573,136.82z M162.322,145.005c-10.176,0-18.426-8.25-18.426-18.426s8.25-18.426,18.426-18.426
	s18.425,8.25,18.425,18.426S172.498,145.005,162.322,145.005z"/>
</svg>
