<?xml version="1.0" encoding="utf-8"?>
<!-- Generator: Adobe Illustrator 16.0.0, SVG Export Plug-In . SVG Version: 6.00 Build 0)  -->
<!DOCTYPE svg PUBLIC "-//W3C//DTD SVG 1.1//EN" "http://www.w3.org/Graphics/SVG/1.1/DTD/svg11.dtd">
<svg version="1.1" id="Capa_1" xmlns="http://www.w3.org/2000/svg" xmlns:xlink="http://www.w3.org/1999/xlink" x="0px" y="0px"
	 width="320px" height="320px" viewBox="0 0 320 320" enable-background="new 0 0 320 320" xml:space="preserve">
<path fill="#A10723" d="M196.796,72.825c-7.616,0-13.79,6.174-13.79,13.79v93.081h9.309v62.293c0,3.866,3.134,7,7,7h4.271
	c3.866,0,7-3.134,7-7v-62.293v-2.309V86.615C210.586,78.999,204.412,72.825,196.796,72.825z"/>
<path fill="#A10723" d="M159.322,73.825h-2.895c-1.104,0-2,0.896-2,2v39.932h-4.517V75.825c0-1.104-0.896-2-2-2h-2.895
	c-1.104,0-2,0.896-2,2v39.932H137.5V75.825c0-1.104-0.896-2-2-2h-2.895c-1.104,0-2,0.896-2,2v39.932h-5.517V75.825
	c0-1.104-0.896-2-2-2h-2.895c-1.104,0-2,0.896-2,2v39.932v13.985c0,0.29,0.064,0.563,0.176,0.812
	c-0.11,0.602-0.176,1.219-0.176,1.852c0,5.647,4.578,10.226,10.226,10.226h2.186v99.357c0,3.866,3.134,7,7,7h4.271
	c3.866,0,7-3.134,7-7v-99.357h2.22c5.647,0,10.226-4.578,10.226-10.226c0-0.633-0.065-1.25-0.176-1.852
	c0.111-0.249,0.176-0.522,0.176-0.812v-13.985V75.825C161.322,74.721,160.427,73.825,159.322,73.825z"/>
<path fill="#A10723" d="M161.322,280.501c-66.444,0-120.5-54.056-120.5-120.5s54.056-120.5,120.5-120.5s120.5,54.056,120.5,120.5
	S227.767,280.501,161.322,280.501z M161.322,52.501c-59.275,0-107.5,48.225-107.5,107.5s48.225,107.5,107.5,107.5
	s107.5-48.225,107.5-107.5S220.598,52.501,161.322,52.501z"/>
<path fill="#A10723" d="M584.28,120.455c0.951-4.12,1.47-8.404,1.47-12.812c0-31.366-25.428-56.794-56.794-56.794
	c-31.367,0-56.795,25.428-56.795,56.794c0,10.045,2.618,19.474,7.193,27.66l-0.009,0.001c0,0,0.028,0.044,0.08,0.123
	c1.032,1.835,2.163,3.605,3.386,5.308c8.147,12.944,28.227,45.954,33.396,64.82c0,0,8.162,26.773,7.836,37.547
	c0,0-0.621,5.876,4.913,5.876c0,0,6.188,0.654,5.861-7.835c0,0,5.224-28.079,8.162-34.608s13.06-35.914,25.14-51.259
	c0,0,17.341-29.815,16.18-34.823L584.28,120.455z M528.956,130.462c-12.441,0-22.527-10.086-22.527-22.527
	s10.086-22.527,22.527-22.527s22.527,10.086,22.527,22.527S541.397,130.462,528.956,130.462z"/>
</svg>
