<?xml version="1.0" encoding="utf-8"?>
<!-- Generator: Adobe Illustrator 16.0.0, SVG Export Plug-In . SVG Version: 6.00 Build 0)  -->
<!DOCTYPE svg PUBLIC "-//W3C//DTD SVG 1.1//EN" "http://www.w3.org/Graphics/SVG/1.1/DTD/svg11.dtd">
<svg version="1.1" id="Capa_1" xmlns="http://www.w3.org/2000/svg" xmlns:xlink="http://www.w3.org/1999/xlink" x="0px" y="0px"
	 width="320px" height="320px" viewBox="0 0 320 320" enable-background="new 0 0 320 320" xml:space="preserve">
<path fill="#A10723" d="M161.322,280.501c-66.444,0-120.5-54.056-120.5-120.5s54.056-120.5,120.5-120.5s120.5,54.056,120.5,120.5
	S227.767,280.501,161.322,280.501z M161.322,52.501c-59.275,0-107.5,48.225-107.5,107.5s48.225,107.5,107.5,107.5
	s107.5-48.225,107.5-107.5S220.598,52.501,161.322,52.501z"/>
<g>
	<path fill="#A10723" d="M238.2,121.043h-12.622c-0.463,0-0.838,0.375-0.838,0.838v0.516v15.871v26.429H97.904v-26.429v-15.871
		v-0.516c0-0.463-0.375-0.838-0.838-0.838H84.444c-0.463,0-0.838,0.375-0.838,0.838v0.516v15.871v26.429v20.888v13.375h14.298
		v-13.375H224.74v13.375h14.298v-60.691v-15.871v-0.516C239.038,121.418,238.663,121.043,238.2,121.043z"/>
	<circle fill="#A10723" cx="111.413" cy="150.038" r="11.257"/>
	<path fill="#A10723" d="M128.746,161.295h89.341c0,0-5.024-19.207-22.558-19.207c-10.163-0.224-41.099,0-41.099,0
		S130.532,143.425,128.746,161.295z"/>
</g>
</svg>
