<?xml version="1.0" encoding="utf-8"?>
<!-- Generator: Adobe Illustrator 16.0.0, SVG Export Plug-In . SVG Version: 6.00 Build 0)  -->
<!DOCTYPE svg PUBLIC "-//W3C//DTD SVG 1.1//EN" "http://www.w3.org/Graphics/SVG/1.1/DTD/svg11.dtd">
<svg version="1.1" id="Capa_1" xmlns="http://www.w3.org/2000/svg" xmlns:xlink="http://www.w3.org/1999/xlink" x="0px" y="0px"
	 width="900px" height="100px" viewBox="0 0 900 100" enable-background="new 0 0 900 100" xml:space="preserve">
<path fill="#FFFFFF" d="M57.742,82.132c0,0-9.996,3.499-14.894,1.999l1.699-1.999c0,0-5.198-0.8-12.495-6.998l8.997-2.698
	c0,0-8.896-7.797-10.696-11.795l3.299-1.6c0,0-2.699-4.199-1.299-16.994c0,0,6.598,11.495,11.696,13.195l2.099-1.4
	c0,0,4.398,6.998,8.197,16.096l0.1-4.299c0,0-5.498-8.697-6.797-10.797l1-0.3c0,0-1.5-9.296-3.699-11.496c0,0,3.799,0.6,8.597,2.999
	c0,0,0.5-7.597-0.9-9.496c0,0,2.699-0.2,3.299,0.599c0,0,1-5.697,0.8-10.696c0,0,7.497,5.198,7.597,10.496c0,0,1.4-0.9,2.899-0.6
	c0,0,0.2,7.797,0,10.496c0,0,2.833-5.365,7.631-5.631c0,0-1.199,7.331-4.132,12.93l1.2,0.532c0,0-5.198,3.199-6.664,14.128
	c0,0,9.462-7.597,9.596-10.662c0,0,1.732,1.198,2.266,2.398c0,0,2.799-3.857,4.665-5.062c0,0-0.266,1.471,2,0
	c0.799-0.402,7.063-4,4.931-6.667c0,0,2.265,0.266-1.866,12.26l1.466,0.802c0,0-1.199,2.267-4.531,5.997l2.665,2
	c0,0-3.332,3.197-10.663,6.531c0,0,2.132,3.197,7.063,5.197C82.866,81.6,72.336,87.861,57.742,82.132z"/>
<g>
	<path fill="#FFFFFF" d="M105.504,51.85l2.917,8.354c0.491,1.351,0.89,2.579,1.197,3.807h0.092c0.338-1.228,0.768-2.456,1.259-3.807
		l2.886-8.354h2.825l-5.834,14.863h-2.58l-5.65-14.863H105.504z"/>
	<path fill="#FFFFFF" d="M122.238,47.674c0.031,0.921-0.645,1.659-1.72,1.659c-0.952,0-1.627-0.737-1.627-1.659
		c0-0.952,0.707-1.689,1.689-1.689C121.594,45.985,122.238,46.722,122.238,47.674z M119.229,66.713V51.85h2.702v14.863H119.229z"/>
	<path fill="#FFFFFF" d="M126.045,63.949c0.798,0.521,2.211,1.074,3.562,1.074c1.966,0,2.887-0.982,2.887-2.211
		c0-1.289-0.768-1.996-2.764-2.732c-2.672-0.953-3.931-2.426-3.931-4.207c0-2.395,1.935-4.361,5.129-4.361
		c1.504,0,2.825,0.43,3.653,0.922l-0.675,1.965c-0.583-0.369-1.658-0.859-3.04-0.859c-1.597,0-2.487,0.921-2.487,2.025
		c0,1.229,0.891,1.781,2.825,2.52c2.579,0.982,3.9,2.271,3.9,4.482c0,2.609-2.027,4.453-5.558,4.453
		c-1.628,0-3.132-0.398-4.176-1.015L126.045,63.949z"/>
	<path fill="#FFFFFF" d="M141.583,47.674c0.031,0.921-0.645,1.659-1.719,1.659c-0.952,0-1.628-0.737-1.628-1.659
		c0-0.952,0.707-1.689,1.689-1.689C140.938,45.985,141.583,46.722,141.583,47.674z M138.573,66.713V51.85h2.703v14.863H138.573z"/>
	<path fill="#FFFFFF" d="M149.013,47.582v4.268h3.869v2.059h-3.869v8.016c0,1.842,0.522,2.887,2.027,2.887
		c0.707,0,1.228-0.093,1.565-0.186l0.123,2.027c-0.522,0.215-1.351,0.369-2.395,0.369c-1.259,0-2.272-0.399-2.917-1.138
		c-0.768-0.799-1.044-2.118-1.044-3.87v-8.105h-2.303V51.85h2.303v-3.562L149.013,47.582z"/>
	<path fill="#FFFFFF" d="M164.151,66.713l-0.215-1.874h-0.092c-0.829,1.167-2.426,2.212-4.545,2.212
		c-3.009,0-4.544-2.119-4.544-4.269c0-3.593,3.194-5.558,8.936-5.527v-0.308c0-1.229-0.338-3.439-3.377-3.439
		c-1.382,0-2.826,0.43-3.87,1.105l-0.614-1.782c1.229-0.798,3.009-1.32,4.883-1.32c4.545,0,5.65,3.103,5.65,6.081v5.559
		c0,1.289,0.062,2.549,0.246,3.562L164.151,66.713L164.151,66.713z M163.751,59.127c-2.948-0.061-6.295,0.462-6.295,3.348
		c0,1.752,1.167,2.58,2.549,2.58c1.935,0,3.163-1.229,3.593-2.486c0.092-0.276,0.153-0.584,0.153-0.86V59.127z"/>
	<path fill="#FFFFFF" d="M175.573,47.397v4.298h3.347v3.439h-3.347v5.436c0,1.812,0.43,2.642,1.842,2.642
		c0.583,0,1.044-0.062,1.382-0.122l0.031,3.531c-0.614,0.245-1.719,0.398-3.041,0.398c-1.504,0-2.764-0.521-3.5-1.289
		c-0.859-0.893-1.29-2.334-1.29-4.453v-6.143h-1.996v-3.439h1.996V48.44L175.573,47.397z"/>
	<path fill="#FFFFFF" d="M196.3,59.036c0,5.496-3.9,8.015-7.922,8.015c-4.391,0-7.77-2.887-7.77-7.738s3.194-7.953,8.015-7.953
		C193.229,51.357,196.3,54.521,196.3,59.036z M185.429,59.189c0,2.58,1.075,4.514,3.071,4.514c1.812,0,2.979-1.812,2.979-4.514
		c0-2.242-0.86-4.515-2.979-4.515C186.259,54.675,185.429,56.979,185.429,59.189z"/>
	<path fill="#FFFFFF" d="M199.185,56.641c0-2.211-0.062-3.654-0.123-4.943h4.022l0.154,2.764h0.123
		c0.767-2.18,2.61-3.102,4.053-3.102c0.43,0,0.645,0,0.983,0.062v4.392c-0.338-0.062-0.737-0.123-1.259-0.123
		c-1.72,0-2.887,0.92-3.194,2.363c-0.062,0.309-0.092,0.676-0.092,1.045v7.615h-4.668L199.185,56.641L199.185,56.641z"/>
	<path fill="#FFFFFF" d="M225.439,59.036c0,5.496-3.9,8.015-7.922,8.015c-4.391,0-7.77-2.887-7.77-7.738s3.194-7.953,8.015-7.953
		C222.369,51.357,225.439,54.521,225.439,59.036z M214.568,59.189c0,2.58,1.075,4.514,3.071,4.514c1.812,0,2.979-1.812,2.979-4.514
		c0-2.242-0.86-4.515-2.979-4.515C215.398,54.675,214.568,56.979,214.568,59.189z"/>
	<path fill="#FFFFFF" d="M228.324,56.486c0-1.873-0.062-3.471-0.122-4.791h4.054l0.214,2.058h0.092
		c0.614-0.952,2.15-2.396,4.638-2.396c3.07,0,5.373,2.026,5.373,6.449v8.904h-4.667v-8.322c0-1.934-0.675-3.255-2.365-3.255
		c-1.289,0-2.057,0.892-2.364,1.75c-0.123,0.276-0.184,0.737-0.184,1.167v8.66h-4.668L228.324,56.486L228.324,56.486z"/>
	<path fill="#FFFFFF" d="M251.354,47.397v4.298h3.347v3.439h-3.347v5.436c0,1.812,0.43,2.642,1.842,2.642
		c0.583,0,1.045-0.062,1.382-0.122l0.031,3.531c-0.614,0.245-1.72,0.398-3.041,0.398c-1.504,0-2.763-0.521-3.5-1.289
		c-0.86-0.893-1.29-2.334-1.29-4.453v-6.143h-1.996v-3.439h1.996V48.44L251.354,47.397z"/>
	<path fill="#FFFFFF" d="M272.081,59.036c0,5.496-3.9,8.015-7.923,8.015c-4.392,0-7.769-2.887-7.769-7.738s3.194-7.953,8.015-7.953
		C269.01,51.357,272.081,54.521,272.081,59.036z M261.21,59.189c0,2.58,1.075,4.514,3.071,4.514c1.812,0,2.979-1.812,2.979-4.514
		c0-2.242-0.86-4.515-2.979-4.515C262.04,54.675,261.21,56.979,261.21,59.189z"/>
</g>
<g>
	<path fill="#FFFFFF" d="M365.18,52.288l3.036,8.692c0.511,1.405,0.927,2.684,1.246,3.962h0.096c0.352-1.278,0.799-2.557,1.31-3.962
		l3.004-8.692h2.94l-6.071,15.467h-2.684l-5.881-15.467H365.18z"/>
	<path fill="#FFFFFF" d="M382.594,47.943c0.032,0.959-0.67,1.727-1.79,1.727c-0.991,0-1.693-0.768-1.693-1.727
		c0-0.991,0.735-1.757,1.757-1.757C381.924,46.185,382.594,46.952,382.594,47.943z M379.463,67.755V52.288h2.812v15.467H379.463z"/>
	<path fill="#FFFFFF" d="M386.556,64.88c0.831,0.543,2.301,1.117,3.707,1.117c2.045,0,3.004-1.021,3.004-2.301
		c0-1.342-0.799-2.077-2.875-2.844c-2.781-0.991-4.091-2.524-4.091-4.378c0-2.492,2.013-4.539,5.336-4.539
		c1.565,0,2.94,0.449,3.803,0.959l-0.703,2.045c-0.606-0.383-1.726-0.895-3.164-0.895c-1.661,0-2.588,0.959-2.588,2.108
		c0,1.278,0.927,1.854,2.94,2.621c2.684,1.021,4.058,2.365,4.058,4.665c0,2.716-2.109,4.634-5.784,4.634
		c-1.694,0-3.259-0.415-4.346-1.055L386.556,64.88z"/>
	<path fill="#FFFFFF" d="M402.724,47.943c0.032,0.959-0.672,1.727-1.79,1.727c-0.99,0-1.694-0.768-1.694-1.727
		c0-0.991,0.735-1.757,1.758-1.757C402.052,46.185,402.724,46.952,402.724,47.943z M399.593,67.755V52.288h2.812v15.467H399.593z"/>
	<path fill="#FFFFFF" d="M410.455,47.847v4.441h4.027v2.142h-4.027v8.342c0,1.915,0.543,3.003,2.109,3.003
		c0.734,0,1.278-0.096,1.63-0.192l0.128,2.11c-0.543,0.224-1.406,0.383-2.493,0.383c-1.31,0-2.365-0.415-3.035-1.184
		c-0.799-0.83-1.087-2.205-1.087-4.025V54.43h-2.396v-2.142h2.396v-3.707L410.455,47.847z"/>
	<path fill="#FFFFFF" d="M426.208,67.755l-0.224-1.949h-0.096c-0.863,1.215-2.524,2.302-4.729,2.302
		c-3.131,0-4.729-2.205-4.729-4.442c0-3.738,3.322-5.783,9.298-5.751v-0.319c0-1.277-0.353-3.579-3.516-3.579
		c-1.438,0-2.939,0.447-4.026,1.149l-0.64-1.854c1.278-0.83,3.132-1.373,5.081-1.373c4.729,0,5.879,3.227,5.879,6.327v5.783
		c0,1.342,0.064,2.652,0.256,3.707H426.208z M425.792,59.861c-3.066-0.063-6.551,0.479-6.551,3.483c0,1.82,1.214,2.685,2.653,2.685
		c2.013,0,3.292-1.278,3.738-2.589c0.097-0.287,0.159-0.606,0.159-0.895V59.861L425.792,59.861z"/>
	<path fill="#FFFFFF" d="M438.095,47.655v4.474h3.482v3.579h-3.482v5.656c0,1.885,0.446,2.747,1.916,2.747
		c0.607,0,1.088-0.063,1.438-0.127l0.032,3.675c-0.64,0.256-1.79,0.415-3.164,0.415c-1.566,0-2.876-0.543-3.644-1.342
		c-0.895-0.929-1.342-2.429-1.342-4.634v-6.392h-2.077v-3.578h2.077V48.74L438.095,47.655z"/>
	<path fill="#FFFFFF" d="M459.662,59.767c0,5.72-4.059,8.34-8.245,8.34c-4.568,0-8.084-3.004-8.084-8.053
		c0-5.05,3.323-8.276,8.34-8.276C456.467,51.777,459.662,55.069,459.662,59.767z M448.351,59.927c0,2.685,1.117,4.696,3.195,4.696
		c1.886,0,3.101-1.886,3.101-4.696c0-2.334-0.896-4.697-3.101-4.697C449.213,55.229,448.351,57.625,448.351,59.927z"/>
	<path fill="#FFFFFF" d="M462.663,57.273c0-2.301-0.062-3.803-0.127-5.145h4.187l0.158,2.875h0.13
		c0.799-2.269,2.716-3.228,4.218-3.228c0.446,0,0.671,0,1.021,0.063v4.569c-0.352-0.063-0.767-0.128-1.311-0.128
		c-1.789,0-3.003,0.959-3.323,2.46c-0.062,0.32-0.096,0.703-0.096,1.087v7.925h-4.857V57.273z"/>
	<path fill="#FFFFFF" d="M489.984,59.767c0,5.72-4.06,8.34-8.245,8.34c-4.569,0-8.084-3.004-8.084-8.053
		c0-5.05,3.323-8.276,8.34-8.276C486.789,51.777,489.984,55.069,489.984,59.767z M478.672,59.927c0,2.685,1.118,4.696,3.195,4.696
		c1.886,0,3.101-1.886,3.101-4.696c0-2.334-0.896-4.697-3.101-4.697C479.534,55.229,478.672,57.625,478.672,59.927z"/>
	<path fill="#FFFFFF" d="M492.986,57.113c0-1.949-0.064-3.611-0.129-4.984h4.219l0.224,2.141h0.097
		c0.639-0.989,2.235-2.491,4.825-2.491c3.193,0,5.592,2.108,5.592,6.711v9.268h-4.857v-8.66c0-2.014-0.703-3.388-2.46-3.388
		c-1.342,0-2.141,0.928-2.461,1.821c-0.128,0.287-0.19,0.768-0.19,1.214v9.013h-4.856V57.113H492.986z"/>
	<path fill="#FFFFFF" d="M516.95,47.655v4.474h3.483v3.579h-3.483v5.656c0,1.885,0.447,2.747,1.917,2.747
		c0.607,0,1.087-0.063,1.438-0.127l0.031,3.675c-0.639,0.256-1.79,0.415-3.164,0.415c-1.564,0-2.876-0.543-3.643-1.342
		c-0.895-0.929-1.342-2.429-1.342-4.634v-6.392h-2.077v-3.578h2.077V48.74L516.95,47.655z"/>
	<path fill="#FFFFFF" d="M538.519,59.767c0,5.72-4.06,8.34-8.244,8.34c-4.57,0-8.085-3.004-8.085-8.053
		c0-5.05,3.323-8.276,8.341-8.276C535.323,51.777,538.519,55.069,538.519,59.767z M527.207,59.927c0,2.685,1.118,4.696,3.195,4.696
		c1.886,0,3.1-1.886,3.1-4.696c0-2.334-0.896-4.697-3.1-4.697C528.069,55.229,527.207,57.625,527.207,59.927z"/>
</g>
<path fill="#FFFFFF" d="M755.54,77.371c0,0-10.273,3.597-15.308,2.055l1.745-2.055c0,0-5.342-0.822-12.842-7.191l9.247-2.773
	c0,0-9.145-8.014-10.993-12.123l3.391-1.645c0,0-2.773-4.314-1.335-17.465c0,0,6.779,11.814,12.021,13.561l2.157-1.439
	c0,0,4.521,7.192,8.424,16.541l0.104-4.417c0,0-5.651-8.939-6.986-11.096l1.027-0.308c0,0-1.541-9.555-3.803-11.815
	c0,0,3.904,0.617,8.835,3.083c0,0,0.516-7.809-0.924-9.76c0,0,2.774-0.206,3.392,0.616c0,0,1.026-5.855,0.821-10.993
	c0,0,7.704,5.342,7.809,10.788c0,0,1.438-0.925,2.979-0.617c0,0,0.205,8.014,0,10.788c0,0,2.911-5.514,7.842-5.788
	c0,0-1.231,7.534-4.247,13.287l1.234,0.548c0,0-5.344,3.289-6.85,14.521c0,0,9.726-7.808,9.861-10.959c0,0,1.781,1.233,2.329,2.467
	c0,0,2.876-3.966,4.794-5.203c0,0-0.272,1.511,2.057,0c0.82-0.414,7.26-4.112,5.066-6.852c0,0,2.329,0.273-1.917,12.602l1.506,0.822
	c0,0-1.231,2.329-4.655,6.164l2.738,2.057c0,0-3.425,3.287-10.959,6.711c0,0,2.192,3.287,7.262,5.343
	C781.362,76.823,770.541,83.261,755.54,77.371z"/>
</svg>
